<?xml version="1.0" encoding="utf-8"?>
<!-- Generator: Adobe Illustrator 25.2.0, SVG Export Plug-In . SVG Version: 6.00 Build 0)  -->
<svg version="1.1" id="Capa_1" xmlns="http://www.w3.org/2000/svg" xmlns:xlink="http://www.w3.org/1999/xlink" x="0px" y="0px"
	 viewBox="0 0 385 385" style="enable-background:new 0 0 385 385;" xml:space="preserve">
<style type="text/css">
	.st0{fill:#FFFFFF;}
</style>
<g>
	<g id="Menu_1_">
		<path class="st0" d="M12,121.8h360.9c6.6,0,12-6,12-13.5c0-7.5-5.4-13.5-12-13.5H12c-6.6,0-12,6-12,13.5S5.4,121.8,12,121.8z"/>
		<path class="st0" d="M372.9,179H12c-6.6,0-12,6-12,13.5S5.4,206,12,206h360.9c6.6,0,12-6,12-13.5S379.6,179,372.9,179z"/>
		<path class="st0" d="M372.9,263.2H132.3c-6.6,0-12,6-12,13.5c0,7.5,5.4,13.5,12,13.5h240.6c6.6,0,12-6,12-13.5
			C385,269.2,379.6,263.2,372.9,263.2z"/>
	</g>
</g>
</svg>
